<svg xmlns="http://www.w3.org/2000/svg" viewBox="0 0 48 48" width="96px" height="96px"><path fill="#c48c00" d="M44,37H4v5c0,1.105,0.895,2,2,2h36c1.105,0,2-0.895,2-2V37z"/><linearGradient id="mqGAn~AfKUNcLhPwXVdula" x1="24" x2="24" y1="15.647" y2="-.296" gradientUnits="userSpaceOnUse"><stop offset="0" stop-color="#92a3b0"/><stop offset=".015" stop-color="#a3b5c4"/><stop offset=".032" stop-color="#aec2d1"/><stop offset=".046" stop-color="#b2c6d6"/></linearGradient><path fill="url(#mqGAn~AfKUNcLhPwXVdula)" d="M11,13v3h4v-3c0-4.971,4.029-9,9-9h0c4.971,0,9,4.029,9,9v3h4v-3c0-7.18-5.82-13-13-13h0	C16.82,0,11,5.82,11,13z"/><path fill="#fad500" d="M44,23H4v-5c0-1.105,0.895-2,2-2h36c1.105,0,2,0.895,2,2V23z"/><rect width="40" height="7" x="4" y="23" fill="#edbe00"/><rect width="40" height="7" x="4" y="30" fill="#e3a600"/><linearGradient id="mqGAn~AfKUNcLhPwXVdulb" x1="24" x2="24" y1="35.373" y2="27.155" gradientUnits="userSpaceOnUse"><stop offset="0" stop-color="#4b4b4b"/><stop offset="1" stop-color="#3b3b3b"/></linearGradient><path fill="url(#mqGAn~AfKUNcLhPwXVdulb)" d="M27,29c0-1.657-1.343-3-3-3s-3,1.343-3,3c0,1.304,0.837,2.403,2,2.816V35c0,0.552,0.448,1,1,1	s1-0.448,1-1v-3.184C26.163,31.403,27,30.304,27,29z"/></svg>